<?xml version="1.0" encoding="utf-8"?>
<!-- Generator: Adobe Illustrator 16.0.0, SVG Export Plug-In . SVG Version: 6.00 Build 0)  -->
<!DOCTYPE svg PUBLIC "-//W3C//DTD SVG 1.1//EN" "http://www.w3.org/Graphics/SVG/1.1/DTD/svg11.dtd">
<svg version="1.1" xmlns="http://www.w3.org/2000/svg" xmlns:xlink="http://www.w3.org/1999/xlink" x="0px" y="0px" width="27px"
	 height="23px" viewBox="0 0 27 23" style="enable-background:new 0 0 27 23;" xml:space="preserve">
<style type="text/css">
<![CDATA[
	.st0{enable-background:new    ;}
	.st1{fill:#FFFFFF;}
	.st2{fill-rule:evenodd;clip-rule:evenodd;fill:#FFFFFF;}
]]>
</style>
<g id="_xF0E0__1_" class="st0">
	<g id="_xF0E0_">
		<g>
			<path class="st2" d="M1.5,12.9c1.6,1.1,3.1,2.2,4.7,3.3c0.7,0.5,1.8,1.4,2.6,1.4h0h0c0.8,0,1.9-0.9,2.6-1.4
				c1.6-1.1,3.1-2.2,4.7-3.3c0,0,0,0,0.1-0.1c-1.5-1-2.6-2.5-3-4.3H1.4c-1.1,0-1.6,0.8-1.6,1.8C-0.2,11.3,0.8,12.4,1.5,12.9z
				 M17.4,13.5c-0.2,0.2-0.4,0.3-0.6,0.5c-1.7,1.1-3.4,2.3-5,3.5c-0.8,0.6-1.9,1.4-3,1.4h0h0c-1.1,0-2.1-0.8-3-1.4
				c-1.6-1.2-3.3-2.3-5-3.5c-0.4-0.3-0.7-0.5-1-0.9v8c0,0.9,0.7,1.6,1.6,1.6h14.8c0.9,0,1.6-0.7,1.6-1.6v-7.4
				C17.7,13.6,17.5,13.6,17.4,13.5z"/>
		</g>
	</g>
</g>
<g id="Ellipse_2_1_" class="st0">
	<g id="Ellipse_2">
		<g>
			<circle class="st1" cx="20" cy="7" r="2"/>
		</g>
	</g>
</g>
</svg>
